<svg version="1.1" id="Layer_1" xmlns="http://www.w3.org/2000/svg" xmlns:xlink="http://www.w3.org/1999/xlink" x="0px" y="0px"
	 width="100%" viewBox="0 0 352 352" enable-background="new 0 0 352 352" xml:space="preserve">
<path fill="#000000" opacity="1.000000" stroke="none" 
	d="
M192.048538,30.688002 
	C215.983444,37.160019 225.997498,55.152351 232.330627,76.633598 
	C236.660187,91.318977 240.115005,106.221329 244.182541,120.967003 
	C244.447662,121.928139 244.727539,122.887772 245.059006,123.827492 
	C245.712189,125.679352 245.964233,128.064484 248.349869,128.394897 
	C250.582581,128.704147 251.290268,126.452774 252.220825,124.996147 
	C262.712616,108.572861 273.119781,92.095520 283.584808,75.655083 
	C288.146942,68.488007 292.824921,61.394619 297.379974,54.223118 
	C299.330170,51.152733 301.318298,50.872047 303.576141,53.804317 
	C306.727356,57.896790 309.825653,62.030365 313.003937,66.101578 
	C315.193726,68.906593 313.623901,70.864258 311.875641,73.125519 
	C294.861359,95.132538 278.050903,117.298698 260.868622,139.173050 
	C257.335022,143.671616 258.053894,146.269058 261.406616,150.512039 
	C271.187683,162.890259 284.022064,170.207352 298.574921,175.168076 
	C309.523621,178.900269 314.724792,188.555573 311.993469,201.789337 
	C306.848938,226.715729 294.232147,247.879257 277.679535,266.827454 
	C275.157043,269.715027 272.082428,272.520538 267.746429,272.994720 
	C265.521027,270.404053 267.624847,267.417572 266.770172,263.878021 
	C258.975983,268.997192 257.972778,278.531525 251.403168,283.549530 
	C244.850189,288.554810 238.274078,293.537109 233.293015,299.594574 
	C229.793076,298.529236 231.442795,295.627502 229.380585,293.838348 
	C225.225494,297.113953 222.796494,301.814758 219.739517,306.019012 
	C210.713867,318.432098 201.421539,330.582733 187.906052,338.676544 
	C183.301010,341.434296 179.107361,341.662811 174.334671,339.029022 
	C166.896973,334.924530 161.049271,329.090088 155.316895,323.014862 
	C147.390106,314.614014 141.482773,304.683258 134.348694,295.685822 
	C133.650146,294.804810 133.154251,293.683411 131.805252,293.388306 
	C130.281952,295.191803 132.073654,298.296753 128.335617,299.892059 
	C123.636543,293.459198 116.875504,288.748474 110.365303,283.718109 
	C103.929428,278.745178 102.656738,269.542084 95.762772,264.547943 
	C93.108391,267.434021 97.038994,270.619354 94.140808,273.039093 
	C90.514565,272.907532 87.916779,270.484192 85.420975,268.131439 
	C78.955849,262.036987 73.452431,255.122879 69.159584,247.342896 
	C61.531773,233.518936 53.024593,220.071091 50.091164,204.156677 
	C49.024559,198.370163 48.453445,192.678116 50.604881,186.963394 
	C52.674107,181.467041 56.167973,177.313766 61.845291,175.776474 
	C70.989784,173.300354 79.002213,168.387131 86.971748,163.742920 
	C93.658951,159.845993 98.142548,152.949295 103.054276,146.896103 
	C105.087807,144.389984 103.002556,142.161926 101.506248,140.205780 
	C91.989975,127.765007 82.437645,115.351715 72.867546,102.952240 
	C65.232681,93.060143 57.628265,83.142899 49.855495,73.359833 
	C47.355713,70.213531 47.263195,67.569023 49.849884,64.484329 
	C52.629673,61.169353 55.082245,57.582203 57.748951,54.169579 
	C60.598877,50.522484 62.015068,50.545631 64.438538,54.341579 
	C79.051178,77.229744 93.621353,100.145020 108.243378,123.027176 
	C109.748703,125.382874 110.984261,127.984039 113.610504,129.933762 
	C116.035744,127.203133 116.798141,123.809059 117.654602,120.561729 
	C122.572136,101.916519 126.988640,83.161224 133.490845,64.932358 
	C140.558563,45.118061 154.595795,34.075947 174.493698,29.368006 
	C180.390625,27.972767 186.045288,28.632025 192.048538,30.688002 
M71.165367,75.699593 
	C81.145927,96.657074 91.276352,117.523392 107.660797,134.567612 
	C108.297081,131.673065 106.420982,129.220535 104.929955,126.786713 
	C101.101547,120.537552 97.152672,114.360901 93.179298,108.202141 
	C85.963181,97.017090 79.045090,85.631607 70.844513,74.308853 
	C67.789513,69.064476 64.734512,63.820103 61.612240,58.460236 
	C58.591858,60.273548 57.529247,63.042728 55.623966,65.041389 
	C52.904858,67.893753 53.252190,70.256645 55.677494,73.233360 
	C61.763924,80.703568 67.450523,88.499001 73.511215,95.991096 
	C75.060646,97.906464 75.905380,100.773621 80.522850,101.870758 
	C75.866180,88.942047 69.075279,78.299942 62.524029,66.034561 
	C67.352699,68.677086 67.929909,72.936676 71.165367,75.699593 
M269.036682,254.641037 
	C276.744568,253.666199 272.850586,259.519440 273.756500,264.204895 
	C289.604218,246.160721 299.890564,226.697708 305.675415,204.783936 
	C301.895660,207.810547 302.800262,213.876480 297.603424,216.812820 
	C296.549744,211.738373 296.135529,207.408447 297.354156,203.240402 
	C298.980865,197.676743 298.405548,192.042389 298.593933,186.429459 
	C298.654724,184.619385 298.417877,182.749680 294.961761,181.556519 
	C295.043304,190.034363 290.889404,197.758987 294.380127,206.076508 
	C293.280151,207.375916 291.001648,206.432587 290.372070,208.603821 
	C288.760376,214.162170 284.636353,218.296097 281.803284,223.168839 
	C280.502167,225.406754 278.728729,227.729721 276.359497,228.010880 
	C270.278809,228.732498 269.569336,234.098038 266.632141,237.587448 
	C271.508850,237.330353 273.565491,232.177078 278.043365,231.370178 
	C278.810303,233.077484 277.684998,233.818329 276.964935,234.626465 
	C270.538666,241.839066 264.220612,249.172913 256.734924,255.336975 
	C247.486420,262.952606 238.132217,270.439789 228.836639,277.998444 
	C226.652527,279.774414 222.894470,281.809296 223.413956,284.033112 
	C224.345322,288.020172 221.567093,289.735809 220.389862,292.396118 
	C219.563446,294.263611 217.869064,295.770447 217.755615,298.952087 
	C223.318588,294.586731 226.881760,289.633209 230.489532,284.685577 
	C232.270554,282.243134 234.386017,279.906525 236.833939,284.194672 
	C237.803040,285.892303 239.191147,285.944122 240.640228,285.009583 
	C242.448105,283.843689 244.235992,282.620300 245.895126,281.254822 
	C254.109924,274.494171 256.981018,263.507446 265.729156,256.423340 
	C266.617401,255.850632 267.505646,255.277924 269.036682,254.641037 
M163.887192,270.859833 
	C163.689392,270.624390 163.481232,270.398529 163.435928,269.548218 
	C164.344543,267.361267 165.769058,268.152069 167.060364,269.015228 
	C169.144806,270.408539 170.969543,272.084930 172.501968,274.111145 
	C174.782867,277.126953 177.598633,279.504761 181.534927,280.714355 
	C177.539322,273.644897 178.394806,264.941467 171.284714,258.080414 
	C176.755646,258.894531 178.783569,264.503906 183.297470,261.297363 
	C185.054855,260.049011 187.447968,259.004852 186.378311,255.937439 
	C183.422684,256.214661 183.725159,260.004700 180.771790,260.254303 
	C178.017273,257.514832 177.359436,252.912292 174.226105,250.944794 
	C172.032806,250.816040 172.535690,253.523041 170.077667,252.853943 
	C165.426620,247.633087 160.350449,242.075806 154.021637,237.988312 
	C147.939651,234.060181 142.915649,228.292267 135.025803,226.986053 
	C143.273956,235.596786 149.855530,245.113525 153.671677,256.230255 
	C149.135468,256.379913 98.701752,214.888519 95.463417,207.465515 
	C100.809341,211.064240 104.340187,216.026291 110.417488,217.225525 
	C110.834244,213.323486 106.245567,212.487152 105.961266,209.079712 
	C110.262459,209.664459 113.243019,212.958206 118.409752,213.161652 
	C114.168839,207.543900 110.493050,202.703918 106.854782,197.835892 
	C105.877129,196.527771 104.016167,195.028702 104.847443,193.540588 
	C106.527206,190.533508 104.724953,188.448380 103.731606,186.088791 
	C102.375298,182.866989 100.867676,179.699783 100.687958,176.121902 
	C100.583717,174.046738 100.824265,172.239227 102.915268,170.994751 
	C117.140213,162.528671 124.835632,149.061554 130.879684,134.329727 
	C131.473007,132.883560 131.517685,130.971573 134.303406,130.084259 
	C131.986130,143.352966 125.334831,154.339813 119.724220,165.773209 
	C122.953293,164.059830 124.751411,161.178772 126.015778,158.231293 
	C132.324005,143.525681 137.468842,128.375885 141.256668,112.846878 
	C142.999908,105.700012 144.911972,98.673172 147.622925,91.861694 
	C153.591766,76.864525 162.902237,70.667137 179.050171,70.646439 
	C181.882019,70.642807 184.900879,71.387665 188.210724,69.380562 
	C181.852371,66.400620 184.016068,62.274609 186.203995,58.464897 
	C189.109634,53.405453 192.769608,48.880188 196.939926,44.757469 
	C199.078720,42.643101 200.131027,39.994682 196.792953,38.152668 
	C191.198730,35.065662 184.993134,32.356010 178.703995,33.595806 
	C160.842789,37.116837 146.315979,45.376656 139.402435,63.669277 
	C134.625015,76.309914 130.384872,89.125633 127.499283,102.280334 
	C122.933548,123.094414 116.838036,143.044144 100.094116,157.637268 
	C91.751534,164.908249 90.557617,173.057205 95.061211,182.666641 
	C96.068443,184.815826 96.884567,187.085617 95.874512,189.983109 
	C91.298386,183.794937 89.348930,176.912888 87.002960,170.253464 
	C78.053535,171.804947 74.769539,175.499512 74.225403,184.027771 
	C73.831787,190.197113 73.805183,196.317551 75.271233,202.421692 
	C72.416496,199.026291 71.242424,195.054367 70.962585,190.909409 
	C70.678276,186.698318 70.899788,182.453079 70.899788,178.174393 
	C64.139183,179.713425 63.896606,180.180756 63.226166,186.747345 
	C62.429943,194.545944 63.656948,202.178284 64.622932,209.919540 
	C60.069725,202.514984 60.933048,193.547363 58.181812,184.585648 
	C55.083771,187.883942 54.592373,190.587662 54.362076,193.422165 
	C53.723434,201.282715 55.931293,208.742599 58.792309,215.745193 
	C64.274925,229.164429 71.905952,241.532089 79.652603,253.763870 
	C81.331955,256.415527 83.109459,259.447083 86.819069,260.165894 
	C88.025368,251.211334 88.025375,251.211319 81.260544,247.690948 
	C75.570091,244.729660 66.308548,226.773026 67.110001,220.226791 
	C67.123085,220.119934 67.336655,220.037613 67.486931,219.920197 
	C68.919968,220.145935 69.099663,221.408035 69.495018,222.459930 
	C71.839722,228.698303 75.761154,233.839157 80.758461,238.126938 
	C89.731819,245.826263 98.795479,253.421066 107.869034,261.002533 
	C111.322914,263.888458 114.186775,267.169037 117.098846,271.465668 
	C111.853226,271.278168 110.615669,265.903198 105.216904,266.230621 
	C109.000717,275.520294 114.173813,282.405243 123.241226,285.896149 
	C127.133240,280.670776 127.945198,280.679230 131.951279,285.755768 
	C133.085556,287.193115 134.191330,288.677155 135.495651,289.949646 
	C136.950180,291.368744 138.499054,293.988800 140.799973,291.832214 
	C142.708313,290.043579 141.982330,287.470764 140.555588,285.423737 
	C139.802704,284.343597 138.773895,283.447876 137.827164,282.511902 
	C130.696762,275.462616 122.575058,269.600433 114.828796,263.286682 
	C111.622673,260.673492 108.328339,258.070679 105.849045,253.586533 
	C107.420128,253.866486 108.014069,253.790695 108.314255,254.052155 
	C117.638023,262.173737 128.332001,268.330597 138.535004,275.190521 
	C140.178253,276.295349 141.462479,278.233643 143.552109,278.302521 
	C147.837814,278.443787 151.030472,280.803986 153.163132,283.888641 
	C157.672821,290.411316 163.693024,295.434845 168.968750,301.186981 
	C170.957779,303.355591 172.678696,305.715057 172.866867,308.618164 
	C171.488083,309.639130 170.567276,307.262177 169.334152,308.999847 
	C172.607437,314.370575 175.125168,320.303802 180.282639,324.687958 
	C178.632431,317.894409 176.295807,310.610474 176.703583,304.379486 
	C177.218933,296.504242 171.041260,291.977051 170.448013,285.227448 
	C172.980347,286.766663 174.008118,289.479248 177.922806,290.546112 
	C175.037292,282.117737 170.313461,276.195557 163.887192,270.859833 
M179.250839,126.688568 
	C176.807922,128.288879 173.823563,129.450150 172.071579,131.610718 
	C170.252655,133.853821 168.902863,133.760345 166.612259,132.946167 
	C161.514587,131.134216 156.430099,129.324570 151.916595,126.207077 
	C150.346085,129.458908 150.238388,129.464035 150.351151,131.829666 
	C151.217468,150.006180 157.445038,166.206879 168.751572,180.391663 
	C170.746246,182.894104 173.618774,184.770203 177.345734,185.166550 
	C178.350693,181.339859 182.542084,177.629913 176.560989,174.398621 
	C176.109818,174.154877 175.910065,172.824829 176.092178,172.130585 
	C177.267975,167.648392 175.635605,163.633743 174.350967,159.497299 
	C173.575806,157.001358 171.973206,154.400543 172.946106,151.791321 
	C174.167114,148.516678 172.857117,146.561066 170.735519,144.353592 
	C168.817291,142.357712 167.223892,139.920929 168.647354,136.947113 
	C170.342041,136.435410 171.486679,137.228897 172.704391,137.717636 
	C177.568451,139.669830 182.497208,139.355286 187.359009,137.859116 
	C191.046799,136.724228 191.973312,133.503006 188.876984,131.254745 
	C186.198639,129.309998 183.727448,126.440903 179.250839,126.688568 
M145.127655,205.324280 
	C146.176392,207.286118 147.474731,208.777145 146.937592,211.639130 
	C145.815842,217.616043 151.863937,224.544312 158.784500,225.215546 
	C154.526138,218.279358 151.920502,210.777435 147.662567,204.785782 
	C139.590225,193.426620 133.925934,181.715057 133.523941,167.666565 
	C133.465012,165.606659 133.670685,163.297928 131.604431,161.423157 
	C124.532379,166.592468 120.866707,176.349030 110.663589,177.223694 
	C109.773666,184.967896 124.813110,203.725800 135.318954,207.476837 
	C129.643539,203.303375 130.063522,195.721664 125.354500,190.701233 
	C122.318291,187.464218 123.523170,182.232117 124.224106,177.767517 
	C126.694237,180.757843 128.615677,183.826080 130.475952,186.930954 
	C134.421570,193.516296 140.004684,198.782120 145.127655,205.324280 
M219.080627,248.573547 
	C216.161880,250.929260 214.362305,254.685181 209.819412,255.224426 
	C215.306076,248.718307 220.792740,242.212173 226.279404,235.706039 
	C225.901886,235.345779 225.524368,234.985504 225.146851,234.625244 
	C217.232544,242.859955 209.309952,251.086761 201.421997,259.346649 
	C200.878174,259.916138 200.066269,261.047852 200.268311,261.384705 
	C202.252075,264.691986 199.384369,266.146149 197.901276,268.158936 
	C197.003204,269.377808 195.444199,270.367737 196.128082,273.331604 
	C212.722916,257.954529 231.647400,246.514038 246.741760,230.343475 
	C235.753479,233.300385 227.972946,241.157852 219.080627,248.573547 
M285.821472,85.102310 
	C287.936920,81.315681 289.632812,77.233452 293.429291,73.809837 
	C291.992157,81.343651 285.485443,86.509048 286.118042,95.007469 
	C287.869141,94.115517 288.692383,93.882408 289.272369,93.372581 
	C296.720551,86.825302 301.805206,78.328491 307.900269,70.664131 
	C308.701660,69.656380 308.623932,68.477463 307.862671,67.411011 
	C305.671509,64.341400 303.734131,61.054634 300.336212,58.250507 
	C294.227417,68.156227 288.311829,77.748611 282.133881,87.766479 
	C284.883026,88.051468 284.719360,86.371941 285.821472,85.102310 
M272.712860,211.026093 
	C271.420410,212.065079 270.600159,214.477631 268.298065,212.644104 
	C267.211639,211.778854 266.475250,212.342285 265.729340,213.070953 
	C257.929779,220.690414 248.192169,226.844788 246.597214,239.535339 
	C259.384369,230.147141 271.451111,220.245621 280.167633,206.816315 
	C280.877930,205.722015 281.278778,204.297424 279.096985,203.407639 
	C277.160400,205.733047 275.166870,208.126877 272.712860,211.026093 
M265.758026,183.361664 
	C264.098755,181.435043 265.916565,177.979752 262.969391,176.502823 
	C257.950073,182.683853 256.700317,191.027039 260.052063,195.798019 
	C264.622314,193.198685 266.108490,189.113495 265.758026,183.361664 
M230.160202,170.347366 
	C227.227020,177.543945 225.774094,185.081284 224.865173,192.915878 
	C226.883163,191.022079 230.886093,190.207535 229.739685,186.986954 
	C228.620819,183.843781 229.653229,181.593018 230.520035,178.975891 
	C231.513046,175.977631 232.062073,172.887741 231.822693,169.706589 
	C231.791656,169.294159 231.743179,168.625519 231.030975,169.130997 
	C230.784454,169.305984 230.678268,169.678711 230.160202,170.347366 
M240.412064,196.260086 
	C245.206802,190.893951 250.465607,185.798080 251.565063,177.735626 
	C247.837738,177.947037 246.105469,179.109039 245.771851,182.733459 
	C245.407608,186.690598 243.996368,190.455124 240.697388,193.189850 
	C239.537994,194.150925 239.648590,194.284332 240.412064,196.260086 
M257.662445,127.436844 
	C263.621857,124.643539 266.757263,119.967789 267.477417,112.141388 
	C262.822815,117.136047 260.131989,121.934616 257.662445,127.436844 
M208.211319,240.705276 
	C211.214874,237.991119 214.218445,235.276962 217.222015,232.562805 
	C211.272934,235.351715 205.511505,238.323929 202.119705,244.194427 
	C204.607315,244.135849 206.010269,242.440369 208.211319,240.705276 
M235.852982,154.875336 
	C234.398087,159.004440 237.337219,160.911545 239.900482,163.016754 
	C239.418503,160.053848 238.230545,157.429108 235.852982,154.875336 
M175.068954,208.986221 
	C173.686096,207.296982 173.014343,208.642349 172.846878,209.729553 
	C172.514481,211.887573 173.665070,213.206161 175.653275,213.921234 
	C176.802948,212.100677 175.706680,210.821320 175.068954,208.986221 
z"/>
<path fill="#000000" opacity="1.000000" stroke="none" 
	d="
M265.471313,256.585754 
	C258.589966,260.967072 253.294678,266.792908 247.187546,271.635437 
	C245.942932,272.622314 245.070190,274.246735 242.829056,274.203339 
	C242.878525,271.946411 244.410187,270.602142 245.653305,269.201385 
	C250.412369,263.838837 255.559189,258.863922 261.226807,254.466843 
	C272.367645,245.823425 281.958282,235.760284 289.626160,223.897064 
	C290.619293,222.360550 291.705536,220.883972 292.756622,219.385223 
	C293.691498,218.052185 294.900909,217.823456 296.192993,218.753571 
	C297.449432,219.658020 297.821716,220.990173 296.845520,222.231339 
	C293.028748,227.084152 291.560760,233.176331 288.241547,238.286041 
	C285.563751,242.408371 282.066132,245.632156 277.906158,248.219299 
	C274.806732,250.146896 271.802917,252.228271 268.575195,254.473190 
	C267.505646,255.277924 266.617401,255.850632 265.471313,256.585754 
z"/>
<path fill="#000000" opacity="1.000000" stroke="none" 
	d="
M164.036179,271.040741 
	C164.132828,272.332733 165.543686,273.179169 164.393524,275.078583 
	C155.319412,268.201965 145.034546,263.401642 135.064301,256.856140 
	C133.981369,256.003662 133.437225,255.454697 132.893082,254.905731 
	C125.989189,247.203964 119.085297,239.502197 112.181404,231.800430 
	C112.513054,231.444717 112.844711,231.089020 113.176361,230.733322 
	C117.894127,234.630356 122.631454,238.503967 127.325775,242.429031 
	C138.761887,251.991089 150.570374,261.074799 162.906433,270.061066 
	C163.481232,270.398529 163.689392,270.624390 164.036179,271.040741 
z"/>
<path fill="#000000" opacity="1.000000" stroke="none" 
	d="
M132.577789,254.801956 
	C133.437225,255.454697 133.981369,256.003662 134.728027,256.753693 
	C139.596527,261.430786 144.339447,265.830414 148.893661,270.417419 
	C150.947449,272.485992 153.094223,274.631134 154.024124,279.173126 
	C145.432510,271.927704 137.649857,265.577667 128.846207,259.463287 
	C129.826721,263.304169 133.449570,264.812683 133.677887,268.424652 
	C117.335678,252.836288 99.547142,238.718292 85.689667,220.384964 
	C87.316208,219.429703 87.869659,219.753021 88.316376,220.274643 
	C96.143059,229.413574 105.574989,236.838959 114.587883,244.696808 
	C116.572151,246.426788 118.114120,250.230042 122.104691,247.763702 
	C122.475548,247.534485 123.740524,248.680115 124.549820,249.245377 
	C127.131004,251.048248 129.693054,252.878510 132.577789,254.801956 
z"/>
<path fill="#000000" opacity="1.000000" stroke="none" 
	d="
M154.593155,242.560760 
	C163.078735,250.780365 170.425873,259.375671 173.311523,270.984314 
	C162.772293,263.002167 157.522430,251.004395 149.619415,240.360092 
	C152.344696,239.707550 153.039230,241.651093 154.593155,242.560760 
z"/>
</svg>